<?xml version="1.0" encoding="utf-8"?>
<svg
	version="1.1"
	xmlns="http://www.w3.org/2000/svg"
	xmlns:xlink="http://www.w3.org/1999/xlink"
	x="0%" y="0%"
	width="100%" height="100%"
	viewBox="0 0 500.0 500.0"
	enable-background="new 0 0 500.0 500.0"
	xml:space="preserve">
	<path
		fill="#006720"
		stroke="#000000"
		fill-opacity="1.000"
		stroke-opacity="0.000"
		fill-rule="nonzero"
		stroke-width="5.0"
		stroke-linejoin="miter"
		stroke-linecap="square"
		d="M-0.00,62.50L41.67,62.50L41.67,479.17L-0.00,479.17z"/>
	<path
		fill="#118F00"
		stroke="#000000"
		fill-opacity="1.000"
		stroke-opacity="0.016"
		fill-rule="nonzero"
		stroke-width="5.0"
		stroke-linejoin="miter"
		stroke-linecap="square"
		d="M41.67,62.50L83.33,62.50L83.33,479.17L41.67,479.17z"/>
	<path
		fill="#006720"
		stroke="#000000"
		fill-opacity="1.000"
		stroke-opacity="0.000"
		fill-rule="nonzero"
		stroke-width="5.0"
		stroke-linejoin="miter"
		stroke-linecap="square"
		d="M541.67,-333.33L625.00,-333.33L625.00,83.33L541.67,83.33z"/>
	<path
		fill="#006720"
		stroke="#000000"
		fill-opacity="1.000"
		stroke-opacity="0.000"
		fill-rule="nonzero"
		stroke-width="5.0"
		stroke-linejoin="miter"
		stroke-linecap="square"
		d="M83.33,62.50L125.00,62.50L125.00,479.17L83.33,479.17z"/>
	<path
		fill="#118F00"
		stroke="#000000"
		fill-opacity="1.000"
		stroke-opacity="0.016"
		fill-rule="nonzero"
		stroke-width="5.0"
		stroke-linejoin="miter"
		stroke-linecap="square"
		d="M125.00,62.50L166.67,62.50L166.67,479.17L125.00,479.17z"/>
	<path
		fill="#006720"
		stroke="#000000"
		fill-opacity="1.000"
		stroke-opacity="0.000"
		fill-rule="nonzero"
		stroke-width="5.0"
		stroke-linejoin="miter"
		stroke-linecap="square"
		d="M166.67,62.50L208.33,62.50L208.33,479.17L166.67,479.17z"/>
	<path
		fill="#006720"
		stroke="#000000"
		fill-opacity="1.000"
		stroke-opacity="0.000"
		fill-rule="nonzero"
		stroke-width="5.0"
		stroke-linejoin="miter"
		stroke-linecap="square"
		d="M250.00,62.50L291.67,62.50L291.67,479.17L250.00,479.17z"/>
	<path
		fill="#118F00"
		stroke="#000000"
		fill-opacity="1.000"
		stroke-opacity="0.016"
		fill-rule="nonzero"
		stroke-width="5.0"
		stroke-linejoin="miter"
		stroke-linecap="square"
		d="M208.33,62.50L250.00,62.50L250.00,479.17L208.33,479.17z"/>
	<path
		fill="#118F00"
		stroke="#000000"
		fill-opacity="1.000"
		stroke-opacity="0.016"
		fill-rule="nonzero"
		stroke-width="5.0"
		stroke-linejoin="miter"
		stroke-linecap="square"
		d="M291.67,62.50L333.33,62.50L333.33,479.17L291.67,479.17z"/>
	<path
		fill="#118F00"
		stroke="#000000"
		fill-opacity="1.000"
		stroke-opacity="0.016"
		fill-rule="nonzero"
		stroke-width="5.0"
		stroke-linejoin="miter"
		stroke-linecap="square"
		d="M458.33,62.50L500.00,62.50L500.00,479.17L458.33,479.17z"/>
	<path
		fill="#118F00"
		stroke="#000000"
		fill-opacity="1.000"
		stroke-opacity="0.016"
		fill-rule="nonzero"
		stroke-width="5.0"
		stroke-linejoin="miter"
		stroke-linecap="square"
		d="M375.00,62.50L416.67,62.50L416.67,479.17L375.00,479.17z"/>
	<path
		fill="#006720"
		stroke="#000000"
		fill-opacity="1.000"
		stroke-opacity="0.000"
		fill-rule="nonzero"
		stroke-width="5.0"
		stroke-linejoin="miter"
		stroke-linecap="square"
		d="M333.33,62.50L375.00,62.50L375.00,479.17L333.33,479.17z"/>
	<path
		fill="#006720"
		stroke="#000000"
		fill-opacity="1.000"
		stroke-opacity="0.000"
		fill-rule="nonzero"
		stroke-width="5.0"
		stroke-linejoin="miter"
		stroke-linecap="square"
		d="M416.67,62.50L458.33,62.50L458.33,479.17L416.67,479.17z"/>
	<path
		fill="#006720"
		stroke="#000000"
		fill-opacity="0.000"
		stroke-opacity="0.980"
		fill-rule="nonzero"
		stroke-width="5.0"
		stroke-linejoin="miter"
		stroke-linecap="square"
		d="M250.00,177.08C301.78,177.08,343.75,219.06,343.75,270.83C343.75,322.61,301.78,364.58,250.00,364.58C198.22,364.58,156.25,322.61,156.25,270.83C156.25,219.06,198.22,177.08,250.00,177.08z"/>
	<path
		fill="#006720"
		stroke="#000000"
		fill-opacity="0.000"
		stroke-opacity="0.980"
		fill-rule="nonzero"
		stroke-width="5.0"
		stroke-linejoin="miter"
		stroke-linecap="square"
		d="M416.67,145.83L500.00,145.83L500.00,395.83L416.67,395.83z"/>
	<path
		fill="#006720"
		stroke="#000000"
		fill-opacity="0.000"
		stroke-opacity="0.980"
		fill-rule="nonzero"
		stroke-width="5.0"
		stroke-linejoin="miter"
		stroke-linecap="square"
		d="M-10.42,145.83L83.33,145.83L83.33,395.83L-10.42,395.83z"/>
	<path
		fill="#006720"
		stroke="#000000"
		fill-opacity="0.000"
		stroke-opacity="0.980"
		fill-rule="nonzero"
		stroke-width="5.0"
		stroke-linejoin="miter"
		stroke-linecap="square"
		d="M250.00,479.17L250.00,62.50"/>
	<path
		fill="#006720"
		stroke="#000000"
		fill-opacity="0.000"
		stroke-opacity="0.980"
		fill-rule="nonzero"
		stroke-width="5.0"
		stroke-linejoin="miter"
		stroke-linecap="square"
		d="M-64.57,206.26L20.83,206.26L20.83,333.33L-64.57,333.33z"/>
	<path
		fill="#006720"
		stroke="#000000"
		fill-opacity="0.000"
		stroke-opacity="0.980"
		fill-rule="nonzero"
		stroke-width="5.0"
		stroke-linejoin="miter"
		stroke-linecap="square"
		d="M458.33,208.33L500.00,208.33L500.00,333.33L458.33,333.33z"/>
	<path
		fill="#006720"
		stroke="#000000"
		fill-opacity="0.000"
		stroke-opacity="0.980"
		fill-rule="nonzero"
		stroke-width="5.0"
		stroke-linejoin="miter"
		stroke-linecap="square"
		d="M410.45,322.15C369.54,303.82,366.16,239.34,410.45,217.98"/>
	<path
		fill="#006720"
		stroke="#000000"
		fill-opacity="0.000"
		stroke-opacity="0.980"
		fill-rule="nonzero"
		stroke-width="5.0"
		stroke-linejoin="miter"
		stroke-linecap="square"
		d="M90.45,219.27C131.03,238.31,133.28,302.84,88.63,323.42"/>
	<path
		fill="#A8BA00"
		stroke="#000000"
		fill-opacity="1.000"
		stroke-opacity="0.980"
		fill-rule="nonzero"
		stroke-width="5.0"
		stroke-linejoin="miter"
		stroke-linecap="square"
		d="M229.17,109.73C236.13,109.73,241.77,116.57,241.77,125.00C241.77,133.43,236.13,140.27,229.17,140.27C222.21,140.27,216.57,133.43,216.57,125.00C216.57,116.57,222.21,109.73,229.17,109.73z"/>
	<path
		fill="#A8BA00"
		stroke="#000000"
		fill-opacity="1.000"
		stroke-opacity="0.980"
		fill-rule="nonzero"
		stroke-width="5.0"
		stroke-linejoin="miter"
		stroke-linecap="square"
		d="M104.17,172.23C111.13,172.23,116.77,179.07,116.77,187.50C116.77,195.93,111.13,202.77,104.17,202.77C97.21,202.77,91.57,195.93,91.57,187.50C91.57,179.07,97.21,172.23,104.17,172.23z"/>
	<path
		fill="#A8BA00"
		stroke="#000000"
		fill-opacity="1.000"
		stroke-opacity="0.980"
		fill-rule="nonzero"
		stroke-width="5.0"
		stroke-linejoin="miter"
		stroke-linecap="square"
		d="M229.17,380.56C236.13,380.56,241.77,387.40,241.77,395.83C241.77,404.27,236.13,411.10,229.17,411.10C222.21,411.10,216.57,404.27,216.57,395.83C216.57,387.40,222.21,380.56,229.17,380.56z"/>
	<path
		fill="#A8BA00"
		stroke="#000000"
		fill-opacity="1.000"
		stroke-opacity="0.980"
		fill-rule="nonzero"
		stroke-width="5.0"
		stroke-linejoin="miter"
		stroke-linecap="square"
		d="M229.17,255.56C236.13,255.56,241.77,262.40,241.77,270.83C241.77,279.27,236.13,286.10,229.17,286.10C222.21,286.10,216.57,279.27,216.57,270.83C216.57,262.40,222.21,255.56,229.17,255.56z"/>
	<path
		fill="#A8BA00"
		stroke="#000000"
		fill-opacity="1.000"
		stroke-opacity="0.980"
		fill-rule="nonzero"
		stroke-width="5.0"
		stroke-linejoin="miter"
		stroke-linecap="square"
		d="M104.17,318.06C111.13,318.06,116.77,324.90,116.77,333.33C116.77,341.77,111.13,348.60,104.17,348.60C97.21,348.60,91.57,341.77,91.57,333.33C91.57,324.90,97.21,318.06,104.17,318.06z"/>
	<path
		fill="#A8BA00"
		stroke="#000000"
		fill-opacity="1.000"
		stroke-opacity="0.980"
		fill-rule="nonzero"
		stroke-width="5.0"
		stroke-linejoin="miter"
		stroke-linecap="square"
		d="M41.67,255.56C48.63,255.56,54.27,262.40,54.27,270.83C54.27,279.27,48.63,286.10,41.67,286.10C34.71,286.10,29.07,279.27,29.07,270.83C29.07,262.40,34.71,255.56,41.67,255.56z"/>
</svg>